<svg width="19" height="18" viewBox="0 0 19 18" fill="none" xmlns="http://www.w3.org/2000/svg">
<circle cx="9.31366" cy="9.00012" r="9" fill="#2DC78F"/>
<path d="M11.9253 6.03013C11.845 5.9947 11.7585 5.97547 11.6707 5.97356L6.9567 5.97356C6.86879 5.97356 6.78175 5.99087 6.70053 6.02451C6.61932 6.05815 6.54552 6.10746 6.48336 6.16962C6.35783 6.29516 6.2873 6.46542 6.2873 6.64295C6.2873 6.73086 6.30462 6.8179 6.33826 6.89912C6.3719 6.98033 6.42121 7.05413 6.48337 7.11629C6.6089 7.24182 6.77916 7.31235 6.9567 7.31235L10.0633 7.30763L6.48529 10.8856C6.36027 11.0106 6.29003 11.1802 6.29003 11.357C6.29003 11.5338 6.36027 11.7034 6.48529 11.8284C6.61032 11.9534 6.77989 12.0237 6.9567 12.0237C7.13351 12.0237 7.30308 11.9534 7.4281 11.8284L11.0061 8.25044L11.0013 11.357C11.001 11.445 11.0181 11.5322 11.0516 11.6136C11.0851 11.695 11.1344 11.7689 11.1966 11.8311C11.2588 11.8934 11.3328 11.9427 11.4142 11.9762C11.4955 12.0097 11.5827 12.0268 11.6707 12.0264C11.7587 12.0268 11.846 12.0097 11.9273 11.9762C12.0087 11.9427 12.0826 11.8934 12.1449 11.8311C12.2071 11.7689 12.2564 11.695 12.2899 11.6136C12.3234 11.5322 12.3405 11.445 12.3401 11.357L12.3401 6.64295C12.3382 6.5552 12.319 6.4687 12.2836 6.38839C12.2159 6.22648 12.0872 6.09775 11.9253 6.03013Z" fill="white"/>
</svg>
